<svg width="16" height="17" viewBox="0 0 16 17" fill="none" xmlns="http://www.w3.org/2000/svg">
<path d="M7.99998 1.83331C4.31718 1.83331 1.33331 4.81718 1.33331 8.49998C1.33331 12.1828 4.31718 15.1666 7.99998 15.1666C11.6828 15.1666 14.6666 12.1828 14.6666 8.49998C14.6666 4.81718 11.6828 1.83331 7.99998 1.83331ZM11.8709 9.25267C11.8709 9.43009 11.7258 9.57525 11.5484 9.57525H9.07525V12.0484C9.07525 12.2258 8.93009 12.3709 8.75267 12.3709H7.24729C7.06987 12.3709 6.92471 12.2258 6.92471 12.0484V9.57525H4.45159C4.27417 9.57525 4.12901 9.43009 4.12901 9.25267V7.74729C4.12901 7.56987 4.27417 7.42471 4.45159 7.42471H6.92471V4.95159C6.92471 4.77417 7.06987 4.62901 7.24729 4.62901H8.75267C8.93009 4.62901 9.07525 4.77417 9.07525 4.95159V7.42471H11.5484C11.7258 7.42471 11.8709 7.56987 11.8709 7.74729V9.25267Z" fill="white"/>
</svg>
