<svg width="12" height="13" viewBox="0 0 12 13" fill="none" xmlns="http://www.w3.org/2000/svg">
<path d="M8.25388 6.5L11.7966 2.95599C12.0678 2.6847 12.0678 2.2518 11.7966 1.98629L10.5099 0.699134C10.2387 0.433622 9.80599 0.433622 9.54057 0.699134L5.99784 4.24315L2.4551 0.699134C2.18392 0.433622 1.75117 0.433622 1.48576 0.699134L0.199062 1.98629C-0.0663541 2.25758 -0.0663541 2.69048 0.199062 2.95599L3.7418 6.5L0.199062 10.044C-0.0663541 10.3153 -0.0663541 10.7482 0.199062 11.0137L1.48576 12.3009C1.75694 12.5664 2.18969 12.5664 2.4551 12.3009L5.99784 8.75685L9.54057 12.3009C9.81176 12.5664 10.2445 12.5664 10.5099 12.3009L11.7966 11.0137C12.062 10.7424 12.062 10.3095 11.7966 10.044L8.25388 6.5Z"/>
</svg>
