<svg width="15" height="13" viewBox="0 0 15 13" fill="none" xmlns="http://www.w3.org/2000/svg">
<path d="M1.30952 2.80954H13.6905C13.9535 2.80954 14.1667 2.59636 14.1667 2.33335V1.14288C14.1667 0.879872 13.9535 0.666687 13.6905 0.666687H1.30952C1.04652 0.666687 0.833334 0.879872 0.833334 1.14288V2.33335C0.833334 2.59636 1.04652 2.80954 1.30952 2.80954ZM1.30952 7.57145H13.6905C13.9535 7.57145 14.1667 7.35826 14.1667 7.09526V5.90478C14.1667 5.64178 13.9535 5.42859 13.6905 5.42859H1.30952C1.04652 5.42859 0.833334 5.64178 0.833334 5.90478V7.09526C0.833334 7.35826 1.04652 7.57145 1.30952 7.57145ZM1.30952 12.3334H13.6905C13.9535 12.3334 14.1667 12.1202 14.1667 11.8572V10.6667C14.1667 10.4037 13.9535 10.1905 13.6905 10.1905H1.30952C1.04652 10.1905 0.833334 10.4037 0.833334 10.6667V11.8572C0.833334 12.1202 1.04652 12.3334 1.30952 12.3334Z"/>
</svg>
