<svg width="14" height="15" viewBox="0 0 14 15" fill="none" xmlns="http://www.w3.org/2000/svg">
<path d="M13.4842 12.3608L10.8881 9.76473C10.771 9.64756 10.6121 9.58246 10.4455 9.58246H10.021C10.7397 8.66328 11.1667 7.50714 11.1667 6.24945C11.1667 3.25756 8.74251 0.833313 5.75061 0.833313C2.75871 0.833313 0.334473 3.25756 0.334473 6.24945C0.334473 9.24135 2.75871 11.6656 5.75061 11.6656C7.0083 11.6656 8.16444 11.2385 9.08362 10.5199V10.9443C9.08362 11.111 9.14872 11.2698 9.26589 11.387L11.862 13.9831C12.1068 14.2278 12.5026 14.2278 12.7447 13.9831L13.4816 13.2462C13.7264 13.0014 13.7264 12.6056 13.4842 12.3608ZM5.75061 9.58246C3.90964 9.58246 2.4176 8.09302 2.4176 6.24945C2.4176 4.40848 3.90704 2.91644 5.75061 2.91644C7.59158 2.91644 9.08362 4.40588 9.08362 6.24945C9.08362 8.09042 7.59418 9.58246 5.75061 9.58246Z" fill="#6A778B"/>
</svg>
